<?xml version="1.0" standalone="no"?>
<!DOCTYPE svg PUBLIC "-//W3C//DTD SVG 20010904//EN"
 "http://www.w3.org/TR/2001/REC-SVG-20010904/DTD/svg10.dtd">
<svg version="1.0" xmlns="http://www.w3.org/2000/svg"
 width="260.000000pt" height="260.000000pt" viewBox="0 0 260.000000 260.000000"
 preserveAspectRatio="xMidYMid meet">
<metadata>
Created by potrace 1.14, written by Peter Selinger 2001-2017
</metadata>
<g transform="translate(0.000000,260.000000) scale(0.100000,-0.100000)"
fill="#000000" stroke="none">
<path d="M1511 1989 c-103 -13 -282 -79 -311 -115 -7 -8 6 -50 43 -138 30 -70
56 -127 58 -127 2 0 38 16 80 35 98 46 189 62 248 46 59 -16 91 -49 91 -96 0
-73 -36 -120 -257 -345 l-212 -215 -3 -120 -3 -120 -176 211 -176 211 154 184
c84 102 162 197 174 213 l20 27 -210 0 -210 0 -67 -85 c-37 -47 -70 -85 -73
-85 -3 0 -35 39 -70 85 l-64 85 -208 0 c-115 0 -209 -3 -209 -6 0 -3 73 -93
163 -200 89 -108 166 -201 171 -208 6 -9 -46 -78 -170 -225 -99 -117 -183
-219 -187 -227 -7 -12 25 -14 201 -14 l209 0 79 100 c43 55 82 100 86 100 4 0
42 -45 84 -100 l77 -100 643 0 644 0 0 150 0 150 -205 0 c-113 0 -205 2 -205
4 0 2 65 68 144 147 153 154 192 213 217 329 16 75 7 184 -21 248 -29 67 -111
144 -183 171 -99 36 -232 47 -366 30z"/>
</g>
</svg>
