<?xml version="1.0" encoding="UTF-8" standalone="no"?><!DOCTYPE svg PUBLIC "-//W3C//DTD SVG 1.1//EN" "http://www.w3.org/Graphics/SVG/1.1/DTD/svg11.dtd"><svg width="100%" height="100%" viewBox="0 0 305 61" version="1.1" xmlns="http://www.w3.org/2000/svg" xmlns:xlink="http://www.w3.org/1999/xlink" xml:space="preserve" xmlns:serif="http://www.serif.com/" style="fill-rule:evenodd;clip-rule:evenodd;stroke-linejoin:round;stroke-miterlimit:2;"><rect id="Artboard1" x="0" y="0" width="304.894" height="60.746" style="fill:none;"/><g transform="matrix(1.06496,0,0,1.04384,-99.9962,-19.3581)"><g transform="matrix(71.8764,0,0,71.8764,98.6188,74.6436)"><path d="M-0.049,-0l0.252,-0.307l0,0.089l-0.238,-0.292l0.243,0l0.114,0.153l-0.074,0l0.116,-0.153l0.242,0l-0.239,0.294l0,-0.094l0.254,0.31l-0.244,0l-0.129,-0.167l0.074,0l-0.129,0.167l-0.242,0Z" style="fill-rule:nonzero;"/></g><g transform="matrix(71.8764,0,0,71.8764,137.935,74.6436)"><path d="M0.062,-0l0,-0.158l0.203,-0.21c0.024,-0.025 0.041,-0.046 0.05,-0.063c0.01,-0.016 0.015,-0.032 0.015,-0.049c0,-0.021 -0.007,-0.036 -0.022,-0.046c-0.014,-0.011 -0.034,-0.016 -0.061,-0.016c-0.024,0 -0.049,0.005 -0.075,0.014c-0.027,0.009 -0.054,0.023 -0.081,0.042l-0.065,-0.156c0.032,-0.023 0.071,-0.042 0.116,-0.055c0.045,-0.013 0.09,-0.02 0.137,-0.02c0.085,0 0.15,0.018 0.195,0.055c0.044,0.036 0.066,0.088 0.066,0.156c0,0.043 -0.009,0.083 -0.028,0.122c-0.019,0.039 -0.051,0.08 -0.098,0.124l-0.147,0.14l0,-0.054l0.298,-0l0,0.174l-0.503,-0Z" style="fill-rule:nonzero;"/></g><g transform="matrix(0.754728,0,0,0.77,44.8498,17.168)"><g transform="matrix(58.4382,0,0,58.4382,182.858,74.6436)"><rect x="0.037" y="-0.207" width="0.211" height="0.207" style="fill:#f6ad55;fill-rule:nonzero;"/></g></g><g transform="matrix(71.8764,0,0,71.8764,193.443,74.6436)"><path d="M0.329,0.012c-0.096,0 -0.17,-0.024 -0.223,-0.072c-0.053,-0.048 -0.079,-0.113 -0.079,-0.196c-0,-0.051 0.011,-0.097 0.032,-0.137c0.022,-0.04 0.053,-0.071 0.092,-0.094c0.04,-0.024 0.087,-0.035 0.14,-0.035c0.053,0 0.098,0.012 0.133,0.035c0.035,0.023 0.062,0.055 0.079,0.095c0.017,0.041 0.026,0.087 0.026,0.139l0,0.04l-0.326,0l0,-0.094l0.171,0l-0.017,0.014c0,-0.033 -0.006,-0.056 -0.017,-0.072c-0.011,-0.015 -0.027,-0.022 -0.047,-0.022c-0.023,0 -0.041,0.009 -0.052,0.028c-0.012,0.018 -0.018,0.047 -0.018,0.088l0,0.021c0,0.039 0.01,0.067 0.029,0.083c0.019,0.017 0.047,0.026 0.084,0.026c0.025,-0 0.049,-0.003 0.072,-0.008c0.023,-0.005 0.044,-0.013 0.065,-0.024l0.052,0.135c-0.027,0.016 -0.057,0.028 -0.09,0.037c-0.033,0.009 -0.068,0.013 -0.106,0.013Z" style="fill-rule:nonzero;"/></g><g transform="matrix(71.8764,0,0,71.8764,234.125,74.6436)"><path d="M0.048,-0l0,-0.365c0,-0.024 -0.001,-0.048 -0.002,-0.073c-0.001,-0.024 -0.003,-0.048 -0.006,-0.072l0.2,0l0.011,0.081l-0.011,0c0.015,-0.028 0.037,-0.051 0.066,-0.068c0.028,-0.016 0.061,-0.025 0.099,-0.025c0.036,0 0.067,0.009 0.093,0.026c0.027,0.016 0.046,0.043 0.059,0.08l-0.017,-0c0.017,-0.033 0.042,-0.059 0.074,-0.078c0.031,-0.019 0.066,-0.028 0.104,-0.028c0.059,0 0.103,0.018 0.132,0.054c0.029,0.036 0.043,0.092 0.043,0.169l0,0.299l-0.209,0l0,-0.293c0,-0.026 -0.004,-0.044 -0.011,-0.055c-0.007,-0.011 -0.019,-0.016 -0.034,-0.016c-0.021,0 -0.037,0.008 -0.048,0.023c-0.011,0.015 -0.017,0.037 -0.017,0.065l0,0.276l-0.208,-0l0,-0.293c0,-0.026 -0.004,-0.044 -0.011,-0.055c-0.007,-0.011 -0.019,-0.016 -0.034,-0.016c-0.021,-0 -0.037,0.008 -0.048,0.023c-0.011,0.015 -0.017,0.037 -0.017,0.065l0,0.276l-0.208,-0Z" style="fill-rule:nonzero;"/></g><g transform="matrix(71.8764,0,0,71.8764,297.736,74.6436)"><path d="M0.25,0.012c-0.043,0 -0.082,-0.011 -0.115,-0.032c-0.034,-0.021 -0.061,-0.052 -0.08,-0.092c-0.019,-0.04 -0.028,-0.088 -0.028,-0.143c-0,-0.055 0.009,-0.103 0.028,-0.143c0.019,-0.04 0.046,-0.071 0.08,-0.092c0.033,-0.021 0.072,-0.032 0.115,-0.032c0.037,0 0.072,0.009 0.103,0.026c0.032,0.017 0.053,0.04 0.062,0.068l-0.01,0l0.012,-0.082l0.2,0c-0.003,0.024 -0.005,0.048 -0.006,0.073c-0.001,0.024 -0.002,0.048 -0.002,0.072l0,0.365l-0.206,-0l-0.002,-0.076l0.012,0c-0.01,0.026 -0.03,0.047 -0.061,0.064c-0.031,0.016 -0.065,0.024 -0.102,0.024Zm0.07,-0.153c0.025,-0 0.045,-0.009 0.061,-0.026c0.015,-0.017 0.023,-0.047 0.023,-0.088c0,-0.041 -0.008,-0.071 -0.023,-0.088c-0.016,-0.017 -0.036,-0.026 -0.061,-0.026c-0.025,0 -0.045,0.009 -0.06,0.026c-0.016,0.017 -0.024,0.047 -0.024,0.088c0,0.041 0.008,0.071 0.023,0.088c0.015,0.017 0.036,0.026 0.061,0.026Z" style="fill-rule:nonzero;"/></g><g transform="matrix(1,0,0,0.981,0,1.41823)"><g transform="matrix(71.8764,0,0,71.8764,341.437,74.6436)"><path d="M0.048,-0l0,-0.51l0.208,0l0,0.51l-0.208,-0Zm-0.003,-0.568l0,-0.182l0.214,0l0,0.182l-0.214,0Z" style="fill-rule:nonzero;"/></g></g><g transform="matrix(71.8764,0,0,71.8764,358.902,74.6436)"><rect x="0.048" y="-0.736" width="0.208" height="0.736" style="fill-rule:nonzero;"/></g></g></svg>